<svg preserveAspectRatio="none" width="100%" height="100%" overflow="visible" style="display: block;" viewBox="0 0 15 16" fill="none" xmlns="http://www.w3.org/2000/svg">
<path id="Mask" d="M15 16H0V0H15V16ZM8.18359 0.652344C7.73424 0.547263 7.26576 0.547263 6.81641 0.652344C6.30827 0.771302 5.83634 1.07683 4.89258 1.6875L3.15234 2.81348C1.76934 3.70836 1.07712 4.15559 0.837891 4.72363C0.628873 5.21999 0.628873 5.78001 0.837891 6.27637C1.07712 6.84441 1.76934 7.29164 3.15234 8.18652L4.89258 9.3125C5.83634 9.92317 6.30827 10.2287 6.81641 10.3477C7.26576 10.4527 7.73424 10.4527 8.18359 10.3477C8.69173 10.2287 9.16366 9.92317 10.1074 9.3125L11.8477 8.18652C13.2307 7.29164 13.9229 6.84441 14.1621 6.27637C14.3711 5.78001 14.3711 5.21999 14.1621 4.72363C13.9229 4.15559 13.2307 3.70836 11.8477 2.81348L10.1074 1.6875C9.16366 1.07683 8.69173 0.771302 8.18359 0.652344ZM7.08984 1.82031C7.35945 1.75726 7.64055 1.75726 7.91016 1.82031C8.16635 1.88028 8.43557 2.03402 9.45605 2.69434L11.1963 3.82129C11.9071 4.2812 12.371 4.58204 12.6934 4.83496C13.0122 5.08515 13.0542 5.18593 13.0557 5.18945C13.1393 5.38801 13.1393 5.61199 13.0557 5.81055C13.0542 5.81407 13.0122 5.91485 12.6934 6.16504C12.371 6.41796 11.9071 6.7188 11.1963 7.17871L9.45605 8.30566C8.43557 8.96598 8.16635 9.11972 7.91016 9.17969C7.64055 9.24274 7.35945 9.24274 7.08984 9.17969C6.83365 9.11972 6.56443 8.96598 5.54395 8.30566L3.80371 7.17871C3.09294 6.7188 2.62901 6.41796 2.30664 6.16504C1.98777 5.91485 1.9458 5.81407 1.94434 5.81055C1.86072 5.61199 1.86072 5.38801 1.94434 5.18945C1.9458 5.18593 1.98777 5.08515 2.30664 4.83496C2.62901 4.58204 3.09294 4.2812 3.80371 3.82129L5.54395 2.69434C6.56443 2.03402 6.83365 1.88028 7.08984 1.82031Z" fill="var(--fill-0, black)"/>
</svg>
