<svg preserveAspectRatio="none" width="100%" height="100%" overflow="visible" style="display: block;" viewBox="0 0 21 24" fill="none" xmlns="http://www.w3.org/2000/svg">
<g id="&#239;&#163;&#191;" filter="url(#filter0_d_52_3509)">
<path fill-rule="evenodd" clip-rule="evenodd" d="M11.8504 5.36815C11.4447 5.58478 11.0595 5.6931 10.695 5.6931C10.6194 5.6931 10.5472 5.68622 10.4784 5.67247C10.4715 5.65184 10.4646 5.61401 10.4578 5.55899C10.4509 5.50398 10.4475 5.44552 10.4475 5.38362C10.4475 4.97099 10.5369 4.57038 10.7157 4.18182C10.8945 3.79325 11.0974 3.47174 11.3243 3.21728C11.6132 2.87341 11.9776 2.58801 12.4178 2.36106C12.8579 2.13411 13.2775 2.01375 13.6763 2C13.697 2.0894 13.7073 2.196 13.7073 2.31979C13.7073 2.73243 13.6282 3.13303 13.47 3.5216C13.3118 3.91017 13.109 4.25575 12.8614 4.55835C12.5932 4.88158 12.2562 5.15152 11.8504 5.36815ZM9.0187 17.8349C8.77455 17.945 8.48743 18 8.15732 18C7.65528 18 7.21513 17.8006 6.83688 17.4017C6.45863 17.0028 6.07006 16.5248 5.67118 15.9678C5.2104 15.3075 4.81668 14.5012 4.49001 13.5487C4.16334 12.5962 4 11.6351 4 10.6654C4 9.62691 4.196 8.75521 4.58801 8.05029C4.98001 7.34537 5.48377 6.81238 6.09929 6.45132C6.71481 6.09026 7.35268 5.90974 8.0129 5.90974C8.36364 5.90974 8.69375 5.96647 9.00322 6.07995C9.3127 6.19342 9.60327 6.30862 9.87492 6.42553C10.1466 6.54245 10.3924 6.6009 10.6125 6.6009C10.8257 6.6009 11.0733 6.53901 11.3553 6.41522C11.6372 6.29142 11.9536 6.16935 12.3043 6.049C12.6551 5.92865 13.0299 5.86847 13.4288 5.86847C13.5801 5.86847 13.838 5.89254 14.2024 5.94068C14.5669 5.98882 14.9675 6.12465 15.4043 6.34816C15.841 6.57167 16.2381 6.94133 16.5957 7.45712C16.5751 7.47776 16.4754 7.55169 16.2966 7.67892C16.1178 7.80615 15.9183 7.99183 15.6983 8.23598C15.4782 8.48012 15.2856 8.7896 15.1206 9.16441C14.9555 9.53922 14.873 9.98453 14.873 10.5003C14.873 11.0918 14.9779 11.5938 15.1876 12.0064C15.3974 12.4191 15.6415 12.7509 15.9201 13.0019C16.1986 13.253 16.4462 13.4369 16.6628 13.5538C16.8794 13.6707 16.9946 13.7326 17.0084 13.7395C17.0015 13.767 16.9138 14.0112 16.7453 14.472C16.5768 14.9327 16.3 15.4451 15.9149 16.009C15.5779 16.4973 15.2151 16.9478 14.8266 17.3604C14.438 17.773 13.9721 17.9794 13.4288 17.9794C13.0643 17.9794 12.7651 17.9261 12.5313 17.8195C12.2974 17.7129 12.0567 17.6063 11.8092 17.4997C11.5616 17.3931 11.228 17.3398 10.8085 17.3398C10.4028 17.3398 10.064 17.3948 9.79239 17.5048C9.52074 17.6149 9.26284 17.7249 9.0187 17.8349Z" fill="var(--fill-0, white)" fill-opacity="0.92"/>
</g>
<defs>
<filter id="filter0_d_52_3509" x="0" y="0" width="21.0084" height="24" filterUnits="userSpaceOnUse" color-interpolation-filters="sRGB">
<feFlood flood-opacity="0" result="BackgroundImageFix"/>
<feColorMatrix in="SourceAlpha" type="matrix" values="0 0 0 0 0 0 0 0 0 0 0 0 0 0 0 0 0 0 127 0" result="hardAlpha"/>
<feOffset dy="2"/>
<feGaussianBlur stdDeviation="2"/>
<feColorMatrix type="matrix" values="0 0 0 0 0 0 0 0 0 0 0 0 0 0 0 0 0 0 0.22 0"/>
<feBlend mode="normal" in2="BackgroundImageFix" result="effect1_dropShadow_52_3509"/>
<feBlend mode="normal" in="SourceGraphic" in2="effect1_dropShadow_52_3509" result="shape"/>
</filter>
</defs>
</svg>
