<svg preserveAspectRatio="none" width="100%" height="100%" overflow="visible" style="display: block;" viewBox="0 0 20 20" fill="none" xmlns="http://www.w3.org/2000/svg">
<g id="Spotlight" filter="url(#filter0_d_52_3464)">
<path d="M9 2C11.7614 2 14 4.23858 14 7C14 8.11012 13.6375 9.13519 13.0254 9.96484L15.5303 12.4697C15.8232 12.7626 15.8232 13.2374 15.5303 13.5303C15.264 13.7965 14.8473 13.8204 14.5537 13.6025L14.4697 13.5303L11.9648 11.0254C11.1352 11.6375 10.1101 12 9 12C6.23858 12 4 9.76142 4 7C4 4.23858 6.23858 2 9 2ZM9 3C6.79086 3 5 4.79086 5 7C5 9.20914 6.79086 11 9 11C11.2091 11 13 9.20914 13 7C13 4.79086 11.2091 3 9 3Z" fill="var(--fill-0, white)" fill-opacity="0.9"/>
</g>
<defs>
<filter id="filter0_d_52_3464" x="0" y="0" width="19.7499" height="19.7497" filterUnits="userSpaceOnUse" color-interpolation-filters="sRGB">
<feFlood flood-opacity="0" result="BackgroundImageFix"/>
<feColorMatrix in="SourceAlpha" type="matrix" values="0 0 0 0 0 0 0 0 0 0 0 0 0 0 0 0 0 0 127 0" result="hardAlpha"/>
<feOffset dy="2"/>
<feGaussianBlur stdDeviation="2"/>
<feColorMatrix type="matrix" values="0 0 0 0 0 0 0 0 0 0 0 0 0 0 0 0 0 0 0.22 0"/>
<feBlend mode="normal" in2="BackgroundImageFix" result="effect1_dropShadow_52_3464"/>
<feBlend mode="normal" in="SourceGraphic" in2="effect1_dropShadow_52_3464" result="shape"/>
</filter>
</defs>
</svg>
