<svg preserveAspectRatio="none" width="100%" height="100%" overflow="visible" style="display: block;" viewBox="0 0 34 20" fill="none" xmlns="http://www.w3.org/2000/svg">
<g id="Battery" clip-path="url(#clip0_52_3479)" filter="url(#filter0_d_52_3479)">
<path id="Battery_2" d="M24 2C25.6569 2 27 3.34315 27 5V11C27 12.6569 25.6569 14 24 14H7C5.34315 14 4 12.6569 4 11V5C4 3.34315 5.34315 2 7 2H24ZM7 3C5.89543 3 5 3.89543 5 5V11C5 12.1046 5.89543 13 7 13H24C25.1046 13 26 12.1046 26 11V5C26 3.89543 25.1046 3 24 3H7ZM28 5.4043C28.8959 5.92312 29.4998 6.89029 29.5 8C29.4998 9.10964 28.8958 10.0768 28 10.5957V5.4043Z" fill="var(--fill-0, white)" fill-opacity="0.5"/>
<rect id="Fill" x="6" y="4" width="14" height="8" rx="1" fill="var(--fill-0, white)" fill-opacity="0.9"/>
</g>
<defs>
<filter id="filter0_d_52_3479" x="0" y="0" width="33.5" height="20" filterUnits="userSpaceOnUse" color-interpolation-filters="sRGB">
<feFlood flood-opacity="0" result="BackgroundImageFix"/>
<feColorMatrix in="SourceAlpha" type="matrix" values="0 0 0 0 0 0 0 0 0 0 0 0 0 0 0 0 0 0 127 0" result="hardAlpha"/>
<feOffset dy="2"/>
<feGaussianBlur stdDeviation="2"/>
<feColorMatrix type="matrix" values="0 0 0 0 0 0 0 0 0 0 0 0 0 0 0 0 0 0 0.22 0"/>
<feBlend mode="normal" in2="BackgroundImageFix" result="effect1_dropShadow_52_3479"/>
<feBlend mode="normal" in="SourceGraphic" in2="effect1_dropShadow_52_3479" result="shape"/>
</filter>
<clipPath id="clip0_52_3479">
<rect width="25.5" height="12" fill="white" transform="translate(4 2)"/>
</clipPath>
</defs>
</svg>
