<svg preserveAspectRatio="none" width="100%" height="100%" overflow="visible" style="display: block;" viewBox="0 0 12 19" fill="none" xmlns="http://www.w3.org/2000/svg">
<g id="Group 3">
<path id="Vector" d="M5.17148 0.975195C5.65069 0.608277 6.33092 0.608335 6.81016 0.975195L6.90977 1.05918L7.14902 1.28281H7.31406V1.43711L10.8775 4.77109C11.4164 5.27548 11.4166 6.11348 10.8775 6.61777C10.365 7.09717 9.55222 7.09708 9.03965 6.61777L7.31406 5.00352V16.2672C7.314 17.0191 6.67688 17.5504 5.99082 17.5504C5.30479 17.5503 4.66764 17.0191 4.66758 16.2672V5.00352L2.94199 6.61777C2.42941 7.09699 1.61659 7.09714 1.1041 6.61777C0.565177 6.1135 0.565323 5.27546 1.1041 4.77109L4.66758 1.43711V1.28281H4.83262L5.07187 1.05918L5.17148 0.975195Z" fill="var(--fill-0, #737373)" stroke="var(--stroke-0, white)" stroke-width="1.4"/>
</g>
</svg>
