<svg preserveAspectRatio="none" width="100%" height="100%" overflow="visible" style="display: block;" viewBox="0 0 9 11" fill="none" xmlns="http://www.w3.org/2000/svg">
<g id="Group 3">
<path id="Vector" d="M4.95362 0.553995C4.95362 0.24805 4.68846 3.68907e-05 4.36137 3.68621e-05C4.03427 3.68335e-05 3.76911 0.248049 3.76911 0.553995L4.95362 0.553995ZM3.94258 10.2405C4.17387 10.4568 4.54887 10.4568 4.78016 10.2405L8.54926 6.71495C8.78056 6.4986 8.78056 6.14784 8.54926 5.93149C8.31797 5.71515 7.94298 5.71515 7.71168 5.93149L4.36137 9.06529L1.01105 5.93149C0.779761 5.71515 0.404759 5.71515 0.173468 5.93149C-0.0578227 6.14783 -0.0578228 6.4986 0.173468 6.71494L3.94258 10.2405ZM3.76911 0.553995L3.76911 9.84874L4.95362 9.84874L4.95362 0.553995L3.76911 0.553995Z" fill="var(--fill-0, #737373)"/>
</g>
</svg>
