<svg preserveAspectRatio="none" width="100%" height="100%" overflow="visible" style="display: block;" viewBox="0 0 9 11" fill="none" xmlns="http://www.w3.org/2000/svg">
<g id="Group 3">
<path id="Vector" d="M4.95362 0.553958C4.95362 0.248013 4.68846 4.5995e-07 4.36137 4.31355e-07C4.03427 4.02759e-07 3.76911 0.248013 3.76911 0.553958L4.95362 0.553958ZM3.94258 10.2404C4.17387 10.4568 4.54887 10.4568 4.78016 10.2404L8.54926 6.71491C8.78056 6.49857 8.78056 6.1478 8.54926 5.93146C8.31797 5.71511 7.94298 5.71511 7.71169 5.93146L4.36137 9.06525L1.01105 5.93145C0.779762 5.71511 0.40476 5.71511 0.173469 5.93145C-0.0578223 6.1478 -0.0578223 6.49857 0.173469 6.71491L3.94258 10.2404ZM3.76911 0.553958L3.76911 9.8487L4.95362 9.8487L4.95362 0.553958L3.76911 0.553958Z" fill="var(--fill-0, #737373)"/>
</g>
</svg>
