<svg preserveAspectRatio="none" width="100%" height="100%" overflow="visible" style="display: block;" viewBox="0 0 24 19" fill="none" xmlns="http://www.w3.org/2000/svg">
<g id="WiFi" filter="url(#filter0_d_52_3489)">
<path d="M11.8486 10C12.702 10.0001 13.4287 10.5355 13.7158 11.2881L11.8486 13L9.98047 11.2881C10.2675 10.5353 10.995 10 11.8486 10ZM11.8486 6C13.8645 6.0001 15.6465 6.99561 16.7344 8.52051L15.2441 9.88672C14.5379 8.7542 13.2816 8.00011 11.8486 8C10.4154 8 9.15846 8.75403 8.45215 9.88672L6.96094 8.51953C8.04887 6.99457 9.8326 6 11.8486 6ZM11.8486 2C15.0311 2.0001 17.8639 3.48883 19.6953 5.80566L18.2178 7.16113C16.7566 5.2407 14.4479 4.0001 11.8486 4C9.2494 4 6.93979 5.2399 5.47852 7.16016L4 5.80566C5.83143 3.48838 8.66569 2 11.8486 2Z" fill="var(--fill-0, white)" fill-opacity="0.9"/>
</g>
<defs>
<filter id="filter0_d_52_3489" x="0" y="0" width="23.6953" height="19" filterUnits="userSpaceOnUse" color-interpolation-filters="sRGB">
<feFlood flood-opacity="0" result="BackgroundImageFix"/>
<feColorMatrix in="SourceAlpha" type="matrix" values="0 0 0 0 0 0 0 0 0 0 0 0 0 0 0 0 0 0 127 0" result="hardAlpha"/>
<feOffset dy="2"/>
<feGaussianBlur stdDeviation="2"/>
<feColorMatrix type="matrix" values="0 0 0 0 0 0 0 0 0 0 0 0 0 0 0 0 0 0 0.22 0"/>
<feBlend mode="normal" in2="BackgroundImageFix" result="effect1_dropShadow_52_3489"/>
<feBlend mode="normal" in="SourceGraphic" in2="effect1_dropShadow_52_3489" result="shape"/>
</filter>
</defs>
</svg>
