<svg preserveAspectRatio="none" width="100%" height="100%" overflow="visible" style="display: block;" viewBox="0 0 14 10" fill="none" xmlns="http://www.w3.org/2000/svg">
<path id="Rectangle" d="M6.28331 0.711899C6.6353 0.629586 7.00163 0.629586 7.35362 0.711899C7.72539 0.798857 8.08778 1.02242 9.07335 1.66014L10.8136 2.78612C11.5153 3.24016 12.0039 3.55707 12.3507 3.82909C12.6967 4.10059 12.8256 4.27119 12.881 4.40233C13.0221 4.73739 13.0221 5.11609 12.881 5.45116C12.8256 5.58229 12.6967 5.7529 12.3507 6.0244C12.0039 6.29642 11.5153 6.61332 10.8136 7.06737L9.07335 8.19334C8.08778 8.83106 7.72539 9.05463 7.35362 9.14159C7.00163 9.2239 6.6353 9.2239 6.28331 9.14159C5.91154 9.05463 5.54914 8.83106 4.56358 8.19334L2.82335 7.06737C2.12164 6.61332 1.63299 6.29642 1.28624 6.0244C0.940186 5.7529 0.811311 5.58229 0.755962 5.45116C0.614854 5.11609 0.614854 4.73739 0.755962 4.40233C0.811311 4.27119 0.940186 4.10059 1.28624 3.82909C1.63299 3.55707 2.12164 3.24016 2.82335 2.78612L4.56358 1.66014C5.54914 1.02242 5.91154 0.798857 6.28331 0.711899Z" stroke="var(--stroke-0, white)" stroke-width="1.3"/>
</svg>
